<?xml version="1.0" encoding="UTF-8"?>
<svg width="220px" height="74px" viewBox="0 0 220 74" version="1.1" xmlns="http://www.w3.org/2000/svg" xmlns:xlink="http://www.w3.org/1999/xlink">
    <title>wqu-logo-white</title>
    <g id="Page-1" stroke="none" stroke-width="1" fill="none" fill-rule="evenodd">
        <g id="wqu-logo-white" transform="translate(0, 0.0804)" fill="#FFFFFF" fill-rule="nonzero">
            <path d="M36.455,55.7588566 C28.7912,55.7588566 21.6048,50.9646566 18.9295,43.3194566 C15.5457,33.6467566 20.6463,23.0193566 30.3004,19.6285566 C34.9767,17.9871566 40.0118,18.2664566 44.4781,20.4187566 L42.959,23.5834566 C39.3367,21.8377566 35.2534,21.6106566 31.4602,22.9427566 C23.6296,25.6933566 19.4927,34.3127566 22.2376,42.1575566 C24.9825,50.0022566 33.5852,54.1469566 41.4163,51.3974566 L42.5755,54.7116566 C40.5527,55.4222566 38.4861,55.7588566 36.455,55.7588566 Z" id="Vector"></path>
            <g id="Vector_2">
                <path d="M88.3668,52.4344566 L88.3668,59.6912566 C88.3668,60.0806566 88.3812,60.4788566 88.4111,60.8858566 C88.44,61.2933566 88.5283,61.6620566 88.6759,61.9924566 C88.823,62.3229566 89.0558,62.5913566 89.3738,62.7976566 C89.6917,63.0044566 90.1392,63.1073566 90.7162,63.1073566 C91.2933,63.1073566 91.7377,63.0044566 92.05,62.7976566 C92.3623,62.5913566 92.5945,62.3229566 92.7478,61.9924566 C92.9011,61.6620566 92.9925,61.2933566 93.0219,60.8858566 C93.0513,60.4788566 93.0658,60.0806566 93.0658,59.6912566 L93.0658,52.4344566 L96.5106,52.4344566 L96.5106,60.1690566 C96.5106,62.2458566 96.0368,63.7625566 95.0891,64.7182566 C94.1404,65.6733566 92.6833,66.1516566 90.7162,66.1516566 C88.7492,66.1516566 87.289,65.6733566 86.3352,64.7182566 C85.3808,63.7625566 84.9039,62.2458566 84.9039,60.1690566 L84.9039,52.4344566 L88.3668,52.4344566 Z" id="Path"></path>
                <polygon id="Path" points="101.776 65.7799566 101.776 52.4346566 105.239 52.4346566 111.634 60.5937566 111.634 52.4346566 115.079 52.4346566 115.079 65.7799566 111.634 65.7799566 105.239 57.6208566 105.239 65.7799566"></polygon>
                <polygon id="Path" points="123.806 52.4346566 120.343 52.4346566 120.343 65.7800566 123.806 65.7800566"></polygon>
                <polygon id="Path" points="131.438 52.4344566 134.653 60.5584566 137.886 52.4344566 141.649 52.4344566 136.031 65.7798566 133.275 65.7798566 127.675 52.4344566"></polygon>
                <polygon id="Path" points="153.097 55.3724566 148.981 55.3724566 148.981 57.6027566 152.867 57.6027566 152.867 60.5405566 148.981 60.5405566 148.981 62.8422566 153.097 62.8422566 153.097 65.7800566 145.518 65.7800566 145.518 52.4346566 153.097 52.4346566"></polygon>
                <path d="M161.524,58.3996566 L162.177,58.3996566 C162.86,58.3996566 163.384,58.2579566 163.749,57.9745566 C164.114,57.6916566 164.297,57.2841566 164.297,56.7531566 C164.297,56.2220566 164.114,55.8150566 163.749,55.5316566 C163.384,55.2487566 162.86,55.1071566 162.177,55.1071566 L161.524,55.1071566 L161.524,58.3996566 Z M169.138,65.7799566 L164.827,65.7799566 L161.524,60.6470566 L161.524,65.7799566 L158.061,65.7799566 L158.061,52.4346566 L163.45,52.4346566 C164.191,52.4346566 164.839,52.5437566 165.392,52.7619566 C165.946,52.9801566 166.402,53.2780566 166.762,53.6555566 C167.121,54.0335566 167.392,54.4700566 167.575,54.9659566 C167.757,55.4608566 167.848,55.9924566 167.848,56.5586566 C167.848,57.5737566 167.604,58.3960566 167.115,59.0279566 C166.626,59.6588566 165.905,60.0870566 164.951,60.3109566 L169.138,65.7799566 Z" id="Shape"></path>
                <path d="M180.374,55.8505566 C179.997,55.5433566 179.62,55.3163566 179.243,55.1690566 C178.866,55.0216566 178.501,54.9481566 178.148,54.9481566 C177.7,54.9481566 177.335,55.0536566 177.053,55.2667566 C176.77,55.4787566 176.629,55.7564566 176.629,56.0982566 C176.629,56.3340566 176.699,56.5290566 176.841,56.6826566 C176.982,56.8361566 177.167,56.9685566 177.397,57.0802566 C177.626,57.1930566 177.885,57.2902566 178.174,57.3724566 C178.463,57.4552566 178.748,57.5436566 179.031,57.6382566 C180.162,58.0162566 180.989,58.5204566 181.513,59.1513566 C182.037,59.7827566 182.3,60.6060566 182.3,61.6206566 C182.3,62.3052566 182.185,62.9248566 181.955,63.4791566 C181.726,64.0340566 181.39,64.5082566 180.948,64.9038566 C180.506,65.2989566 179.964,65.6060566 179.323,65.8243566 C178.68,66.0425566 177.954,66.1516566 177.141,66.1516566 C175.456,66.1516566 173.896,65.6505566 172.459,64.6468566 L173.944,61.8502566 C174.461,62.3109566 174.974,62.6533566 175.48,62.8766566 C175.987,63.1011566 176.487,63.2133566 176.982,63.2133566 C177.547,63.2133566 177.968,63.0835566 178.245,62.8244566 C178.521,62.5643566 178.66,62.2701566 178.66,61.9391566 C178.66,61.7385566 178.625,61.5647566 178.554,61.4173566 C178.484,61.2700566 178.365,61.1340566 178.201,61.0098566 C178.036,60.8857566 177.821,60.7715566 177.556,60.6649566 C177.291,60.5584566 176.97,60.4405566 176.593,60.3107566 C176.145,60.1690566 175.707,60.0128566 175.277,59.8417566 C174.847,59.6710566 174.464,59.4430566 174.129,59.1601566 C173.793,58.8772566 173.522,58.5204566 173.316,58.0891566 C173.11,57.6589566 173.007,57.1133566 173.007,56.4519566 C173.007,55.7916566 173.116,55.1927566 173.333,54.6555566 C173.551,54.1187566 173.857,53.6590566 174.252,53.2747566 C174.647,52.8915566 175.13,52.5937566 175.701,52.3811566 C176.272,52.1691566 176.911,52.0626566 177.618,52.0626566 C178.277,52.0626566 178.966,52.1541566 179.685,52.3367566 C180.403,52.5203566 181.092,52.7881566 181.752,53.1423566 L180.374,55.8505566 Z" id="Path"></path>
                <polygon id="Path" points="190.408 52.4347566 186.945 52.4347566 186.945 65.7800566 190.408 65.7800566"></polygon>
                <polygon id="Path" points="200.726 55.3724566 200.726 65.7800566 197.263 65.7800566 197.263 55.3724566 194.418 55.3724566 194.418 52.4346566 203.569 52.4346566 203.569 55.3724566"></polygon>
                <polygon id="Path" points="211.661 59.3729566 206.803 52.4347566 210.937 52.4347566 213.41 56.0804566 215.866 52.4347566 220 52.4347566 215.124 59.3729566 215.124 65.7801566 211.661 65.7801566"></polygon>
                <path d="M57.2621,43.5758566 L59.2163,43.5743566 L61.5209,37.2318566 L63.8224,43.5702566 L65.7797,43.5681566 L70.3001,31.1277566 L69.1584,31.1287566 L65.4932,41.2379566 L61.6876,31.1354566 L59.3117,31.1375566 L60.9541,35.6649566 L58.9324,41.2442566 L55.1263,31.1411566 L51.6175,31.1442566 L51.618,31.5486566 C53.0131,31.7767566 52.9972,31.8211566 53.3677,32.8404566 L57.2621,43.5758566 Z" id="Path"></path>
                <path d="M100.752,42.6687566 C99.9275,42.6694566 99.5148,42.2076566 99.5141,41.2833566 L99.5058,31.1017566 L97.0954,31.1038566 L97.1057,43.5406566 L104.442,43.5338566 L104.441,42.6656566 L100.752,42.6687566 Z" id="Path"></path>
                <path d="M90.9104,37.7910566 C92.893,37.5438566 93.997,36.5282566 93.9955,34.4137566 C93.9929,31.1067566 90.1728,31.1103566 88.7911,31.1113194 L84.7124,31.1149566 L84.7228,43.5517566 L87.1322,43.5497566 L87.1224,31.9796566 L88.6621,31.9785566 C90.211,31.9770566 91.3543,32.5339566 91.3559,34.5311566 C91.3579,36.8007566 89.6794,37.2408566 88.4809,37.2418566 L88.1696,37.2418566 L92.1234,43.5450566 L94.763,43.5429566 L90.9104,37.7910566 Z" id="Path"></path>
                <path d="M110.181,42.6605581 C108.907,42.6615566 108.906,42.1625566 108.906,41.4427566 L108.898,31.9602566 L110.411,31.9591534 C113.878,31.9561566 114.267,34.0426566 114.270016,37.3171566 C114.274,41.0476566 113.537,42.6574566 110.181,42.6605581 Z M110.757,31.0919491 L106.488,31.0956566 L106.498,43.5323566 L110.16,43.5292566 C113.756,43.5256566 116.834,43.1145566 116.830004,37.2783566 C116.825,32.0481566 114.263,31.0888566 110.757,31.0919491 Z" id="Shape"></path>
                <path d="M76.526,43.0827581 C73.7656,43.0852566 73.5499,39.9003566 73.5472847,37.3410566 C73.5452,34.7834566 73.7559,31.6010566 76.5162,31.5989551 C79.226,31.5963566 79.3896,34.8568566 79.39172,37.3359566 C79.3938,39.8227566 79.2358,43.0806566 76.526,43.0827581 Z M76.5245,30.6919528 C72.1455,30.6955566 70.9335,33.2801566 70.9365941,37.3943566 C70.9402,41.5075566 72.1568,43.9949566 76.5358,43.9912607 C80.7342,43.9876566 82.0019,41.4977566 81.9983076,37.3845566 C81.9947,33.2703566 80.7234,30.6883566 76.5245,30.6919528 Z" id="Shape"></path>
                <path d="M140.906,31.0657566 L140.912,39.1493566 C140.914,41.0182566 140.838,43.0681566 137.786,43.0707566 C135.149,43.0727566 135.148,41.0234566 135.146,39.1545566 L135.14,31.0708566 L132.732,31.0729566 L132.739,39.6535566 C132.742,43.0143566 134.542,43.9400566 137.787,43.9374621 C142.165,43.9332566 142.241,41.1914566 142.239032,38.7175566 L142.233,31.0646566 L140.906,31.0657566 Z" id="Path"></path>
                <polygon id="Path" points="179.773 31.8995566 179.772 31.0307566 169.801 31.0395566 169.801 31.9083566 173.582 31.9052566 173.592 43.4727566 176.001 43.4706566 175.991 31.9026566"></polygon>
                <polygon id="Path" points="166.581 31.0425566 166.589 41.0980566 166.551 41.0980566 160.733 31.0477566 158.307 31.0498566 158.318 43.4866566 159.48 43.4856566 159.47 32.9683566 159.507 32.9683566 165.603 43.4799566 167.755 43.4778566 167.744 31.0415566"></polygon>
                <path d="M150.971,41.1623566 L148.969,35.8453566 L152.897,35.8422566 L150.971,41.1623566 Z M154.632,31.0531566 L153.215,34.9750566 L148.641,34.9791566 L147.164,31.0598566 L143.657,31.0629566 L143.657,31.4673566 C145.051,31.6949566 145.034,31.7398566 145.407,32.7586566 L149.302,43.4946566 L151.256,43.4925566 L155.776,31.0521566 L154.632,31.0531566 Z" id="Shape"></path>
                <path d="M129.946,37.3416566 C129.943,33.2274566 128.671,30.6459566 124.473,30.6495528 C120.09,30.6532566 118.882,33.2372566 118.88599,37.3514566 C118.889,41.4646566 120.104,43.9525566 124.485,43.9484617 L130.53,43.9432566 L130.53,43.5367566 C129.135,43.3118566 128.099,43.0879566 128.747,42.2475566 C129.622,41.1099566 129.948,39.4329566 129.946,37.3416566 Z M124.475,43.0403582 C121.713,43.0429566 121.496,39.8579566 121.493986,37.2987566 C121.492,34.7410566 121.704,31.5586566 124.465,31.5560557 C127.174,31.5540566 127.336,34.8144566 127.338018,37.2935566 C127.34,39.7804566 127.184,43.0377566 124.475,43.0403582 Z" id="Shape"></path>
                <path d="M65.4282,54.1470566 C59.6008,63.8684566 49.4739,69.8375566 38.3663,70.3376566 L38.3663,73.8390566 C50.7039,73.3359566 61.9664,66.7441566 68.4327,55.9549566 L65.4282,54.1470566 Z" id="Path"></path>
                <path d="M3.5047,38.6093566 L0,38.6093566 C0.558999,50.5497566 6.86432,62.0070566 17.8372,68.6086566 C22.2498,71.2630566 27.0247,72.9281566 32.0572,73.5776566 L32.0572,70.0281566 C27.6709,69.4008566 23.503,67.9208566 19.6417,65.5974566 C9.76046,59.6526566 4.05903,49.3567566 3.5047,38.6093566 Z" id="Path"></path>
                <path d="M5.20724,17.9170566 C2.48814,22.4537566 0.867417,27.3467566 0.249068,32.2878566 L3.77645,32.2878566 C4.37571,27.9668566 5.83281,23.6953566 8.21226,19.7249566 C17.6842,3.92115661 38.224,-1.21594339 53.9986,8.27429661 L55.8031,5.26411661 C38.3711,-5.22467339 15.6738,0.453325609 5.20724,17.9170566 Z" id="Path"></path>
            </g>
            <g id="Vector_3" transform="translate(9.0391, 9.3615)">
                <path d="M11.9840358,9.31541 C16.1534358,5.73641 21.4693358,3.65291 27.1594358,3.52311 L27.0794358,0.01236 C20.5051358,0.16285 14.3645358,2.58711 9.57103582,6.75511 L11.9840358,9.31541 Z" id="Path"></path>
                <path d="M6.96463582,15.26981 C7.58873582,14.22841 8.28913582,13.25361 9.04323582,12.33361 L6.62143582,9.76401 C5.64843582,10.91311 4.75143582,12.14121 3.96013582,13.46201 C0.154545816,19.81121 -0.955194184,27.26501 0.834835816,34.45041 C1.88833582,38.67891 3.87863582,42.51131 6.62403582,45.73041 L9.10973582,43.23991 C6.80463582,40.47281 5.13283582,37.20001 4.23573582,33.59981 C2.67233582,27.32451 3.64163582,20.81441 6.96463582,15.26981 Z" id="Path"></path>
                <path d="M40.9646358,47.97431 C33.2471358,53.04881 23.1511358,53.25301 15.2432358,48.49401 C14.1180358,47.81711 13.0635358,47.05531 12.0786358,46.22481 L9.59343582,48.71481 C10.7841358,49.74081 12.0647358,50.67881 13.4382358,51.50521 C17.7992358,54.12911 22.7408358,55.43431 27.6794358,55.43431 C32.9952358,55.43431 38.3075358,53.92121 42.8878358,50.91001 L40.9646358,47.97431 Z" id="Path"></path>
                <path d="M48.4072358,14.13241 L51.3797358,12.28731 C48.8542358,8.38671 45.3190358,5.06981 40.9126358,2.78001 C38.2379358,1.39001 35.4073358,0.46592 32.5159358,-3.55271368e-15 L31.9646358,3.45641 C34.4912358,3.86391 36.9651358,4.67531 39.3028358,5.89051 C43.1285358,7.87831 46.2027358,10.75251 48.4072358,14.13241 Z" id="Path"></path>
            </g>
            <path d="M30.6812,34.7498566 C30.8257,34.3459566 31.0105,33.9529566 31.2355,33.5769566 C32.1316,32.0825566 33.5546,31.0265566 35.2424,30.6050566 C35.7694,30.4727566 36.3021,30.4075566 36.8316,30.4075566 C37.9981,30.4075566 39.1471,30.7240566 40.1732,31.3414566 C41.4832,32.1295566 42.4541,33.3246566 42.9568,34.7498566 L46.5905,34.7498566 C46.0124,32.1600566 44.4227,29.8009566 41.9777,28.3302566 C37.242,25.4824566 31.0745,27.0245566 28.231,31.7686566 C27.6689,32.7066566 27.2782,33.7124566 27.0459,34.7498566 L30.6812,34.7498566 Z" id="Vector_4"></path>
            <path d="M42.9565,39.1291566 C42.8125,39.5309566 42.6282,39.9208566 42.4037,40.2952566 C41.5086,41.7897566 40.0856,42.8452566 38.3973,43.2671566 C36.7105,43.6917566 34.9587,43.4285566 33.467,42.5308566 C32.1591,41.7442566 31.1887,40.5507566 30.6849,39.1291566 L27.0522,39.1291566 C27.0698,39.2083566 27.0796,39.2879566 27.0992,39.3670566 C27.7475,41.9681566 29.3682,44.1607566 31.6625,45.5415566 C33.2409,46.4909566 35.0072,46.9780566 36.8019,46.9780566 C37.6158,46.9780566 38.436,46.8777566 39.2469,46.6750566 C41.8431,46.0255566 44.0316,44.4017566 45.4092,42.1031566 C45.9765,41.1563566 46.3667,40.1520566 46.5943,39.1291566 L42.9565,39.1291566 Z" id="Vector_5"></path>
        </g>
    </g>
</svg>